<svg width="46" height="45" viewBox="0 0 46 45" fill="none" xmlns="http://www.w3.org/2000/svg">
<g clip-path="url(#clip0_186_4451)">
<path d="M22.7295 44.9807C35.0907 44.9807 45.1114 34.96 45.1114 22.5988C45.1114 10.2376 35.0907 0.216919 22.7295 0.216919C10.3684 0.216919 0.347656 10.2376 0.347656 22.5988C0.347656 34.96 10.3684 44.9807 22.7295 44.9807Z" fill="#6DA544"/>
<path d="M12.9985 26.9779C12.9985 28.5902 14.3056 29.8973 15.9179 29.8973H24.676C24.676 31.2409 25.7652 32.3301 27.1088 32.3301H30.0282C31.3718 32.3301 32.461 31.2409 32.461 29.8973V26.9779H12.9985Z" fill="#F0F0F0"/>
<path d="M32.7041 12.8677V19.6795C32.7041 20.7527 31.831 21.6258 30.7578 21.6258V24.5452C33.4408 24.5452 35.6234 22.3624 35.6234 19.6795V12.8677H32.7041Z" fill="#F0F0F0"/>
<path d="M11.7822 19.6795C11.7822 20.7527 10.9091 21.6258 9.83594 21.6258V24.5452C12.5189 24.5452 14.7015 22.3624 14.7015 19.6795V12.8677H11.7822V19.6795Z" fill="#F0F0F0"/>
<path d="M28.3247 12.8677H31.2441V19.6795H28.3247V12.8677Z" fill="#F0F0F0"/>
<path d="M23.9461 16.7601C23.9461 17.0284 23.7278 17.2466 23.4595 17.2466C23.1913 17.2466 22.973 17.0283 22.973 16.7601V12.8676H20.0537V16.7601C20.0537 17.0284 19.8353 17.2466 19.5671 17.2466C19.2989 17.2466 19.0806 17.0283 19.0806 16.7601V12.8676H16.1611V16.7601C16.1611 18.6381 17.689 20.1661 19.5671 20.1661C20.2904 20.1661 20.9612 19.9387 21.5134 19.5527C22.0655 19.9387 22.7363 20.1661 23.4596 20.1661C23.6053 20.1661 23.7485 20.1558 23.8894 20.1379C23.6825 20.9903 22.9149 21.6257 21.9999 21.6257V24.545C24.6829 24.545 26.8655 22.3623 26.8655 19.6794V16.7601V12.8676H23.9462V16.7601H23.9461Z" fill="#F0F0F0"/>
<path d="M16.1611 21.6257H20.5402V24.5451H16.1611V21.6257Z" fill="#F0F0F0"/>
</g>
<defs>
<clipPath id="clip0_186_4451">
<rect width="44.7638" height="44.7638" fill="white" transform="translate(0.347656 0.216919)"/>
</clipPath>
</defs>
</svg>
