<svg width="46" height="45" viewBox="0 0 46 45" fill="none" xmlns="http://www.w3.org/2000/svg">
<g clip-path="url(#clip0_186_4497)">
<path d="M23.1426 44.9227C35.5038 44.9227 45.5245 34.902 45.5245 22.5408C45.5245 10.1796 35.5038 0.158936 23.1426 0.158936C10.7815 0.158936 0.760742 10.1796 0.760742 22.5408C0.760742 34.902 10.7815 44.9227 23.1426 44.9227Z" fill="#F0F0F0"/>
<path d="M5.38697 8.91406C3.62885 11.2015 2.30316 13.8379 1.53125 16.702H13.1749L5.38697 8.91406Z" fill="#0052B4"/>
<path d="M44.7529 16.702C43.9809 13.838 42.6552 11.2016 40.8971 8.91418L33.1094 16.702H44.7529Z" fill="#0052B4"/>
<path d="M1.53125 28.3795C2.30325 31.2435 3.62894 33.88 5.38697 36.1673L13.1746 28.3795H1.53125Z" fill="#0052B4"/>
<path d="M36.7688 4.78561C34.4814 3.0275 31.8451 1.70181 28.981 0.92981V12.5734L36.7688 4.78561Z" fill="#0052B4"/>
<path d="M9.51562 40.2957C11.803 42.0538 14.4395 43.3795 17.3035 44.1515V32.5081L9.51562 40.2957Z" fill="#0052B4"/>
<path d="M17.3034 0.92981C14.4394 1.70181 11.8029 3.0275 9.51562 4.78553L17.3034 12.5733V0.92981Z" fill="#0052B4"/>
<path d="M28.981 44.1515C31.845 43.3795 34.4814 42.0538 36.7687 40.2958L28.981 32.5081V44.1515Z" fill="#0052B4"/>
<path d="M33.1094 28.3795L40.8971 36.1674C42.6552 33.88 43.9809 31.2435 44.7529 28.3795H33.1094Z" fill="#0052B4"/>
<path d="M45.3351 19.6215H26.0622H26.0621V0.348395C25.1064 0.223983 24.1321 0.158936 23.1426 0.158936C22.153 0.158936 21.1789 0.223983 20.2233 0.348395V19.6213V19.6214H0.950201C0.82579 20.5771 0.760742 21.5514 0.760742 22.5408C0.760742 23.5304 0.82579 24.5046 0.950201 25.4602H20.2231H20.2232V44.7332C21.1789 44.8577 22.153 44.9227 23.1426 44.9227C24.1321 44.9227 25.1064 44.8577 26.062 44.7332V25.4603V25.4603H45.3351C45.4595 24.5046 45.5245 23.5304 45.5245 22.5408C45.5245 21.5514 45.4595 20.5771 45.3351 19.6215Z" fill="#D80027"/>
<path d="M28.9812 28.3797L38.9688 38.3673C39.4281 37.9081 39.8663 37.428 40.2844 36.9304L31.7337 28.3796H28.9812V28.3797Z" fill="#D80027"/>
<path d="M17.3036 28.3796H17.3034L7.31592 38.3671C7.7751 38.8265 8.25517 39.2647 8.75282 39.6828L17.3036 31.1318V28.3796Z" fill="#D80027"/>
<path d="M17.3037 16.7022V16.702L7.31612 6.71436C6.85677 7.17353 6.41857 7.65361 6.00049 8.15125L14.5513 16.7021H17.3037V16.7022Z" fill="#D80027"/>
<path d="M28.9812 16.7022L38.9689 6.71447C38.5097 6.25512 38.0296 5.81693 37.532 5.39893L28.9812 13.9498V16.7022Z" fill="#D80027"/>
</g>
<defs>
<clipPath id="clip0_186_4497">
<rect width="44.7638" height="44.7638" fill="white" transform="translate(0.760742 0.158936)"/>
</clipPath>
</defs>
</svg>
