<svg width="45" height="46" viewBox="0 0 45 46" fill="none" xmlns="http://www.w3.org/2000/svg">
<g clip-path="url(#clip0_186_4339)">
<path d="M1.53369 31.1193C4.69609 39.6422 12.9 45.7162 22.5234 45.7162C32.1469 45.7162 40.3508 39.6422 43.5132 31.1193L22.5234 29.1731L1.53369 31.1193Z" fill="#FFDA44"/>
<path d="M22.5234 0.952515C12.9 0.952515 4.69609 7.0264 1.53369 15.5494L22.5234 17.4956L43.5132 15.5494C40.3508 7.0264 32.1469 0.952515 22.5234 0.952515Z" fill="black"/>
<path d="M1.53374 15.5493C0.634091 17.974 0.141602 20.5965 0.141602 23.3343C0.141602 26.072 0.634091 28.6946 1.53374 31.1192H43.5133C44.413 28.6946 44.9054 26.072 44.9054 23.3343C44.9054 20.5965 44.413 17.974 43.5132 15.5493H1.53374Z" fill="#D80027"/>
</g>
<defs>
<clipPath id="clip0_186_4339">
<rect width="44.7638" height="44.7638" fill="white" transform="translate(0.141602 0.952515)"/>
</clipPath>
</defs>
</svg>
