<svg width="46" height="45" viewBox="0 0 46 45" fill="none" xmlns="http://www.w3.org/2000/svg">
<g clip-path="url(#clip0_186_4490)">
<path d="M22.9942 44.8861C35.3554 44.8861 45.3761 34.8654 45.3761 22.5042C45.3761 10.143 35.3554 0.122314 22.9942 0.122314C10.633 0.122314 0.612305 10.143 0.612305 22.5042C0.612305 34.8654 10.633 44.8861 22.9942 44.8861Z" fill="#D80027"/>
<path d="M22.0777 18.4113L23.9141 20.9419L26.8882 19.9775L25.0489 22.506L26.885 25.0366L23.912 24.0685L22.0728 26.597L22.0747 23.4704L19.1016 22.5024L22.0757 21.5381L22.0777 18.4113Z" fill="#F0F0F0"/>
<path d="M17.0659 28.8295C13.5726 28.8295 10.7406 25.9975 10.7406 22.5042C10.7406 19.0108 13.5726 16.1788 17.0659 16.1788C18.1551 16.1788 19.18 16.4543 20.0747 16.9391C18.671 15.5663 16.7513 14.7191 14.6331 14.7191C10.3335 14.7191 6.84814 18.2046 6.84814 22.5041C6.84814 26.8036 10.3336 30.289 14.6331 30.289C16.7515 30.289 18.6711 29.4418 20.0747 28.069C19.18 28.554 18.1551 28.8295 17.0659 28.8295Z" fill="#F0F0F0"/>
</g>
<defs>
<clipPath id="clip0_186_4490">
<rect width="44.7638" height="44.7638" fill="white" transform="translate(0.612305 0.122314)"/>
</clipPath>
</defs>
</svg>
